<?xml version="1.0" encoding="utf-8" standalone="no"?>
<!DOCTYPE svg PUBLIC "-//W3C//DTD SVG 1.1//EN"
  "http://www.w3.org/Graphics/SVG/1.1/DTD/svg11.dtd">
<!-- Created with matplotlib (http://matplotlib.sourceforge.net/) -->
<svg height="504pt" version="1.1" viewBox="0 0 648 504" width="648pt" xmlns="http://www.w3.org/2000/svg" xmlns:xlink="http://www.w3.org/1999/xlink">
 <defs>
  <style type="text/css">
*{stroke-linecap:square;stroke-linejoin:round;}
  </style>
 </defs>
 <g id="figure_1">
  <g id="patch_1">
   <path d="
M0 504
L648 504
L648 0
L0 0
z
" style="fill:#ffffff;"/>
  </g>
  <g id="axes_1">
   <g id="patch_2">
    <path d="
M81 441
L583.2 441
L583.2 50.4
L81 50.4
z
" style="fill:#ffffff;"/>
   </g>
   <g id="matplotlib.axis_1">
    <g id="xtick_1">
     <g id="line2d_1">
      <defs>
       <path d="
M0 0
L0 0" id="m809ce076b5" style="stroke:#262626;stroke-linecap:butt;"/>
      </defs>
      <g>
       <use style="fill:#262626;stroke:#262626;stroke-linecap:butt;" x="206.55" xlink:href="#m809ce076b5" y="441.0"/>
      </g>
     </g>
     <g id="line2d_2">
      <g>
       <use style="fill:#262626;stroke:#262626;stroke-linecap:butt;" x="206.55" xlink:href="#m809ce076b5" y="50.4"/>
      </g>
     </g>
     <g id="text_1">
      <!-- 3T -->
      <defs>
       <path d="
M40.5781 39.3125
Q47.6562 37.7969 51.625 33
Q55.6094 28.2188 55.6094 21.1875
Q55.6094 10.4062 48.1875 4.48438
Q40.7656 -1.42188 27.0938 -1.42188
Q22.5156 -1.42188 17.6562 -0.515625
Q12.7969 0.390625 7.625 2.20312
L7.625 11.7188
Q11.7188 9.32812 16.5938 8.10938
Q21.4844 6.89062 26.8125 6.89062
Q36.0781 6.89062 40.9375 10.5469
Q45.7969 14.2031 45.7969 21.1875
Q45.7969 27.6406 41.2812 31.2656
Q36.7656 34.9062 28.7188 34.9062
L20.2188 34.9062
L20.2188 43.0156
L29.1094 43.0156
Q36.375 43.0156 40.2344 45.9219
Q44.0938 48.8281 44.0938 54.2969
Q44.0938 59.9062 40.1094 62.9062
Q36.1406 65.9219 28.7188 65.9219
Q24.6562 65.9219 20.0156 65.0312
Q15.375 64.1562 9.8125 62.3125
L9.8125 71.0938
Q15.4375 72.6562 20.3438 73.4375
Q25.25 74.2188 29.5938 74.2188
Q40.8281 74.2188 47.3594 69.1094
Q53.9062 64.0156 53.9062 55.3281
Q53.9062 49.2656 50.4375 45.0938
Q46.9688 40.9219 40.5781 39.3125" id="DejaVuSans-33"/>
       <path d="
M-0.296875 72.9062
L61.375 72.9062
L61.375 64.5938
L35.5 64.5938
L35.5 0
L25.5938 0
L25.5938 64.5938
L-0.296875 64.5938
z
" id="DejaVuSans-54"/>
      </defs>
      <g style="fill:#262626;" transform="translate(200.68125 455.421875)scale(0.1 -0.1)">
       <use xlink:href="#DejaVuSans-33"/>
       <use x="63.623046875" xlink:href="#DejaVuSans-54"/>
      </g>
     </g>
    </g>
    <g id="xtick_2">
     <g id="line2d_3">
      <g>
       <use style="fill:#262626;stroke:#262626;stroke-linecap:butt;" x="457.65" xlink:href="#m809ce076b5" y="441.0"/>
      </g>
     </g>
     <g id="line2d_4">
      <g>
       <use style="fill:#262626;stroke:#262626;stroke-linecap:butt;" x="457.65" xlink:href="#m809ce076b5" y="50.4"/>
      </g>
     </g>
     <g id="text_2">
      <!-- 7T -->
      <defs>
       <path d="
M8.20312 72.9062
L55.0781 72.9062
L55.0781 68.7031
L28.6094 0
L18.3125 0
L43.2188 64.5938
L8.20312 64.5938
z
" id="DejaVuSans-37"/>
      </defs>
      <g style="fill:#262626;" transform="translate(451.81015625 455.290625)scale(0.1 -0.1)">
       <use xlink:href="#DejaVuSans-37"/>
       <use x="63.623046875" xlink:href="#DejaVuSans-54"/>
      </g>
     </g>
    </g>
   </g>
   <g id="matplotlib.axis_2">
    <g id="ytick_1">
     <g id="line2d_5">
      <path clip-path="url(#p55c4b05dd8)" d="
M81 441
L583.2 441" style="fill:none;stroke:#cccccc;stroke-linecap:round;"/>
     </g>
     <g id="line2d_6">
      <g>
       <use style="fill:#262626;stroke:#262626;stroke-linecap:butt;" x="81.0" xlink:href="#m809ce076b5" y="441.0"/>
      </g>
     </g>
     <g id="line2d_7">
      <g>
       <use style="fill:#262626;stroke:#262626;stroke-linecap:butt;" x="583.2" xlink:href="#m809ce076b5" y="441.0"/>
      </g>
     </g>
     <g id="text_3">
      <!-- 0.1 -->
      <defs>
       <path d="
M12.4062 8.29688
L28.5156 8.29688
L28.5156 63.9219
L10.9844 60.4062
L10.9844 69.3906
L28.4219 72.9062
L38.2812 72.9062
L38.2812 8.29688
L54.3906 8.29688
L54.3906 0
L12.4062 0
z
" id="DejaVuSans-31"/>
       <path d="
M31.7812 66.4062
Q24.1719 66.4062 20.3281 58.9062
Q16.5 51.4219 16.5 36.375
Q16.5 21.3906 20.3281 13.8906
Q24.1719 6.39062 31.7812 6.39062
Q39.4531 6.39062 43.2812 13.8906
Q47.125 21.3906 47.125 36.375
Q47.125 51.4219 43.2812 58.9062
Q39.4531 66.4062 31.7812 66.4062
M31.7812 74.2188
Q44.0469 74.2188 50.5156 64.5156
Q56.9844 54.8281 56.9844 36.375
Q56.9844 17.9688 50.5156 8.26562
Q44.0469 -1.42188 31.7812 -1.42188
Q19.5312 -1.42188 13.0625 8.26562
Q6.59375 17.9688 6.59375 36.375
Q6.59375 54.8281 13.0625 64.5156
Q19.5312 74.2188 31.7812 74.2188" id="DejaVuSans-30"/>
       <path d="
M10.6875 12.4062
L21 12.4062
L21 0
L10.6875 0
z
" id="DejaVuSans-2e"/>
      </defs>
      <g style="fill:#262626;" transform="translate(59.6796875 444.63984375)scale(0.1 -0.1)">
       <use xlink:href="#DejaVuSans-30"/>
       <use x="63.623046875" xlink:href="#DejaVuSans-2e"/>
       <use x="95.41015625" xlink:href="#DejaVuSans-31"/>
      </g>
     </g>
    </g>
    <g id="ytick_2">
     <g id="line2d_8">
      <path clip-path="url(#p55c4b05dd8)" d="
M81 397.6
L583.2 397.6" style="fill:none;stroke:#cccccc;stroke-linecap:round;"/>
     </g>
     <g id="line2d_9">
      <g>
       <use style="fill:#262626;stroke:#262626;stroke-linecap:butt;" x="81.0" xlink:href="#m809ce076b5" y="397.6"/>
      </g>
     </g>
     <g id="line2d_10">
      <g>
       <use style="fill:#262626;stroke:#262626;stroke-linecap:butt;" x="583.2" xlink:href="#m809ce076b5" y="397.6"/>
      </g>
     </g>
     <g id="text_4">
      <!-- 0.2 -->
      <defs>
       <path d="
M19.1875 8.29688
L53.6094 8.29688
L53.6094 0
L7.32812 0
L7.32812 8.29688
Q12.9375 14.1094 22.625 23.8906
Q32.3281 33.6875 34.8125 36.5312
Q39.5469 41.8438 41.4219 45.5312
Q43.3125 49.2188 43.3125 52.7812
Q43.3125 58.5938 39.2344 62.25
Q35.1562 65.9219 28.6094 65.9219
Q23.9688 65.9219 18.8125 64.3125
Q13.6719 62.7031 7.8125 59.4219
L7.8125 69.3906
Q13.7656 71.7812 18.9375 73
Q24.125 74.2188 28.4219 74.2188
Q39.75 74.2188 46.4844 68.5469
Q53.2188 62.8906 53.2188 53.4219
Q53.2188 48.9219 51.5312 44.8906
Q49.8594 40.875 45.4062 35.4062
Q44.1875 33.9844 37.6406 27.2188
Q31.1094 20.4531 19.1875 8.29688" id="DejaVuSans-32"/>
      </defs>
      <g style="fill:#262626;" transform="translate(59.7578125 401.23984375)scale(0.1 -0.1)">
       <use xlink:href="#DejaVuSans-30"/>
       <use x="63.623046875" xlink:href="#DejaVuSans-2e"/>
       <use x="95.41015625" xlink:href="#DejaVuSans-32"/>
      </g>
     </g>
    </g>
    <g id="ytick_3">
     <g id="line2d_11">
      <path clip-path="url(#p55c4b05dd8)" d="
M81 354.2
L583.2 354.2" style="fill:none;stroke:#cccccc;stroke-linecap:round;"/>
     </g>
     <g id="line2d_12">
      <g>
       <use style="fill:#262626;stroke:#262626;stroke-linecap:butt;" x="81.0" xlink:href="#m809ce076b5" y="354.2"/>
      </g>
     </g>
     <g id="line2d_13">
      <g>
       <use style="fill:#262626;stroke:#262626;stroke-linecap:butt;" x="583.2" xlink:href="#m809ce076b5" y="354.2"/>
      </g>
     </g>
     <g id="text_5">
      <!-- 0.3 -->
      <g style="fill:#262626;" transform="translate(59.5578125 357.83984375)scale(0.1 -0.1)">
       <use xlink:href="#DejaVuSans-30"/>
       <use x="63.623046875" xlink:href="#DejaVuSans-2e"/>
       <use x="95.41015625" xlink:href="#DejaVuSans-33"/>
      </g>
     </g>
    </g>
    <g id="ytick_4">
     <g id="line2d_14">
      <path clip-path="url(#p55c4b05dd8)" d="
M81 310.8
L583.2 310.8" style="fill:none;stroke:#cccccc;stroke-linecap:round;"/>
     </g>
     <g id="line2d_15">
      <g>
       <use style="fill:#262626;stroke:#262626;stroke-linecap:butt;" x="81.0" xlink:href="#m809ce076b5" y="310.8"/>
      </g>
     </g>
     <g id="line2d_16">
      <g>
       <use style="fill:#262626;stroke:#262626;stroke-linecap:butt;" x="583.2" xlink:href="#m809ce076b5" y="310.8"/>
      </g>
     </g>
     <g id="text_6">
      <!-- 0.4 -->
      <defs>
       <path d="
M37.7969 64.3125
L12.8906 25.3906
L37.7969 25.3906
z

M35.2031 72.9062
L47.6094 72.9062
L47.6094 25.3906
L58.0156 25.3906
L58.0156 17.1875
L47.6094 17.1875
L47.6094 0
L37.7969 0
L37.7969 17.1875
L4.89062 17.1875
L4.89062 26.7031
z
" id="DejaVuSans-34"/>
      </defs>
      <g style="fill:#262626;" transform="translate(59.3171875 314.43984375)scale(0.1 -0.1)">
       <use xlink:href="#DejaVuSans-30"/>
       <use x="63.623046875" xlink:href="#DejaVuSans-2e"/>
       <use x="95.41015625" xlink:href="#DejaVuSans-34"/>
      </g>
     </g>
    </g>
    <g id="ytick_5">
     <g id="line2d_17">
      <path clip-path="url(#p55c4b05dd8)" d="
M81 267.4
L583.2 267.4" style="fill:none;stroke:#cccccc;stroke-linecap:round;"/>
     </g>
     <g id="line2d_18">
      <g>
       <use style="fill:#262626;stroke:#262626;stroke-linecap:butt;" x="81.0" xlink:href="#m809ce076b5" y="267.4"/>
      </g>
     </g>
     <g id="line2d_19">
      <g>
       <use style="fill:#262626;stroke:#262626;stroke-linecap:butt;" x="583.2" xlink:href="#m809ce076b5" y="267.4"/>
      </g>
     </g>
     <g id="text_7">
      <!-- 0.5 -->
      <defs>
       <path d="
M10.7969 72.9062
L49.5156 72.9062
L49.5156 64.5938
L19.8281 64.5938
L19.8281 46.7344
Q21.9688 47.4688 24.1094 47.8281
Q26.2656 48.1875 28.4219 48.1875
Q40.625 48.1875 47.75 41.5
Q54.8906 34.8125 54.8906 23.3906
Q54.8906 11.625 47.5625 5.09375
Q40.2344 -1.42188 26.9062 -1.42188
Q22.3125 -1.42188 17.5469 -0.640625
Q12.7969 0.140625 7.71875 1.70312
L7.71875 11.625
Q12.1094 9.23438 16.7969 8.0625
Q21.4844 6.89062 26.7031 6.89062
Q35.1562 6.89062 40.0781 11.3281
Q45.0156 15.7656 45.0156 23.3906
Q45.0156 31 40.0781 35.4375
Q35.1562 39.8906 26.7031 39.8906
Q22.75 39.8906 18.8125 39.0156
Q14.8906 38.1406 10.7969 36.2812
z
" id="DejaVuSans-35"/>
      </defs>
      <g style="fill:#262626;" transform="translate(59.6296875 271.03984375)scale(0.1 -0.1)">
       <use xlink:href="#DejaVuSans-30"/>
       <use x="63.623046875" xlink:href="#DejaVuSans-2e"/>
       <use x="95.41015625" xlink:href="#DejaVuSans-35"/>
      </g>
     </g>
    </g>
    <g id="ytick_6">
     <g id="line2d_20">
      <path clip-path="url(#p55c4b05dd8)" d="
M81 224
L583.2 224" style="fill:none;stroke:#cccccc;stroke-linecap:round;"/>
     </g>
     <g id="line2d_21">
      <g>
       <use style="fill:#262626;stroke:#262626;stroke-linecap:butt;" x="81.0" xlink:href="#m809ce076b5" y="224.0"/>
      </g>
     </g>
     <g id="line2d_22">
      <g>
       <use style="fill:#262626;stroke:#262626;stroke-linecap:butt;" x="583.2" xlink:href="#m809ce076b5" y="224.0"/>
      </g>
     </g>
     <g id="text_8">
      <!-- 0.6 -->
      <defs>
       <path d="
M33.0156 40.375
Q26.375 40.375 22.4844 35.8281
Q18.6094 31.2969 18.6094 23.3906
Q18.6094 15.5312 22.4844 10.9531
Q26.375 6.39062 33.0156 6.39062
Q39.6562 6.39062 43.5312 10.9531
Q47.4062 15.5312 47.4062 23.3906
Q47.4062 31.2969 43.5312 35.8281
Q39.6562 40.375 33.0156 40.375
M52.5938 71.2969
L52.5938 62.3125
Q48.875 64.0625 45.0938 64.9844
Q41.3125 65.9219 37.5938 65.9219
Q27.8281 65.9219 22.6719 59.3281
Q17.5312 52.7344 16.7969 39.4062
Q19.6719 43.6562 24.0156 45.9219
Q28.375 48.1875 33.5938 48.1875
Q44.5781 48.1875 50.9531 41.5156
Q57.3281 34.8594 57.3281 23.3906
Q57.3281 12.1562 50.6875 5.35938
Q44.0469 -1.42188 33.0156 -1.42188
Q20.3594 -1.42188 13.6719 8.26562
Q6.98438 17.9688 6.98438 36.375
Q6.98438 53.6562 15.1875 63.9375
Q23.3906 74.2188 37.2031 74.2188
Q40.9219 74.2188 44.7031 73.4844
Q48.4844 72.75 52.5938 71.2969" id="DejaVuSans-36"/>
      </defs>
      <g style="fill:#262626;" transform="translate(59.3859375 227.63984375)scale(0.1 -0.1)">
       <use xlink:href="#DejaVuSans-30"/>
       <use x="63.623046875" xlink:href="#DejaVuSans-2e"/>
       <use x="95.41015625" xlink:href="#DejaVuSans-36"/>
      </g>
     </g>
    </g>
    <g id="ytick_7">
     <g id="line2d_23">
      <path clip-path="url(#p55c4b05dd8)" d="
M81 180.6
L583.2 180.6" style="fill:none;stroke:#cccccc;stroke-linecap:round;"/>
     </g>
     <g id="line2d_24">
      <g>
       <use style="fill:#262626;stroke:#262626;stroke-linecap:butt;" x="81.0" xlink:href="#m809ce076b5" y="180.6"/>
      </g>
     </g>
     <g id="line2d_25">
      <g>
       <use style="fill:#262626;stroke:#262626;stroke-linecap:butt;" x="583.2" xlink:href="#m809ce076b5" y="180.6"/>
      </g>
     </g>
     <g id="text_9">
      <!-- 0.7 -->
      <g style="fill:#262626;" transform="translate(59.6109375 184.23984375)scale(0.1 -0.1)">
       <use xlink:href="#DejaVuSans-30"/>
       <use x="63.623046875" xlink:href="#DejaVuSans-2e"/>
       <use x="95.41015625" xlink:href="#DejaVuSans-37"/>
      </g>
     </g>
    </g>
    <g id="ytick_8">
     <g id="line2d_26">
      <path clip-path="url(#p55c4b05dd8)" d="
M81 137.2
L583.2 137.2" style="fill:none;stroke:#cccccc;stroke-linecap:round;"/>
     </g>
     <g id="line2d_27">
      <g>
       <use style="fill:#262626;stroke:#262626;stroke-linecap:butt;" x="81.0" xlink:href="#m809ce076b5" y="137.2"/>
      </g>
     </g>
     <g id="line2d_28">
      <g>
       <use style="fill:#262626;stroke:#262626;stroke-linecap:butt;" x="583.2" xlink:href="#m809ce076b5" y="137.2"/>
      </g>
     </g>
     <g id="text_10">
      <!-- 0.8 -->
      <defs>
       <path d="
M31.7812 34.625
Q24.75 34.625 20.7188 30.8594
Q16.7031 27.0938 16.7031 20.5156
Q16.7031 13.9219 20.7188 10.1562
Q24.75 6.39062 31.7812 6.39062
Q38.8125 6.39062 42.8594 10.1719
Q46.9219 13.9688 46.9219 20.5156
Q46.9219 27.0938 42.8906 30.8594
Q38.875 34.625 31.7812 34.625
M21.9219 38.8125
Q15.5781 40.375 12.0312 44.7188
Q8.5 49.0781 8.5 55.3281
Q8.5 64.0625 14.7188 69.1406
Q20.9531 74.2188 31.7812 74.2188
Q42.6719 74.2188 48.875 69.1406
Q55.0781 64.0625 55.0781 55.3281
Q55.0781 49.0781 51.5312 44.7188
Q48 40.375 41.7031 38.8125
Q48.8281 37.1562 52.7969 32.3125
Q56.7812 27.4844 56.7812 20.5156
Q56.7812 9.90625 50.3125 4.23438
Q43.8438 -1.42188 31.7812 -1.42188
Q19.7344 -1.42188 13.25 4.23438
Q6.78125 9.90625 6.78125 20.5156
Q6.78125 27.4844 10.7812 32.3125
Q14.7969 37.1562 21.9219 38.8125
M18.3125 54.3906
Q18.3125 48.7344 21.8438 45.5625
Q25.3906 42.3906 31.7812 42.3906
Q38.1406 42.3906 41.7188 45.5625
Q45.3125 48.7344 45.3125 54.3906
Q45.3125 60.0625 41.7188 63.2344
Q38.1406 66.4062 31.7812 66.4062
Q25.3906 66.4062 21.8438 63.2344
Q18.3125 60.0625 18.3125 54.3906" id="DejaVuSans-38"/>
      </defs>
      <g style="fill:#262626;" transform="translate(59.440625 140.83984375)scale(0.1 -0.1)">
       <use xlink:href="#DejaVuSans-30"/>
       <use x="63.623046875" xlink:href="#DejaVuSans-2e"/>
       <use x="95.41015625" xlink:href="#DejaVuSans-38"/>
      </g>
     </g>
    </g>
    <g id="ytick_9">
     <g id="line2d_29">
      <path clip-path="url(#p55c4b05dd8)" d="
M81 93.8
L583.2 93.8" style="fill:none;stroke:#cccccc;stroke-linecap:round;"/>
     </g>
     <g id="line2d_30">
      <g>
       <use style="fill:#262626;stroke:#262626;stroke-linecap:butt;" x="81.0" xlink:href="#m809ce076b5" y="93.8"/>
      </g>
     </g>
     <g id="line2d_31">
      <g>
       <use style="fill:#262626;stroke:#262626;stroke-linecap:butt;" x="583.2" xlink:href="#m809ce076b5" y="93.8"/>
      </g>
     </g>
     <g id="text_11">
      <!-- 0.9 -->
      <defs>
       <path d="
M10.9844 1.51562
L10.9844 10.5
Q14.7031 8.73438 18.5 7.8125
Q22.3125 6.89062 25.9844 6.89062
Q35.75 6.89062 40.8906 13.4531
Q46.0469 20.0156 46.7812 33.4062
Q43.9531 29.2031 39.5938 26.9531
Q35.25 24.7031 29.9844 24.7031
Q19.0469 24.7031 12.6719 31.3125
Q6.29688 37.9375 6.29688 49.4219
Q6.29688 60.6406 12.9375 67.4219
Q19.5781 74.2188 30.6094 74.2188
Q43.2656 74.2188 49.9219 64.5156
Q56.5938 54.8281 56.5938 36.375
Q56.5938 19.1406 48.4062 8.85938
Q40.2344 -1.42188 26.4219 -1.42188
Q22.7031 -1.42188 18.8906 -0.6875
Q15.0938 0.046875 10.9844 1.51562
M30.6094 32.4219
Q37.25 32.4219 41.125 36.9531
Q45.0156 41.5 45.0156 49.4219
Q45.0156 57.2812 41.125 61.8438
Q37.25 66.4062 30.6094 66.4062
Q23.9688 66.4062 20.0938 61.8438
Q16.2188 57.2812 16.2188 49.4219
Q16.2188 41.5 20.0938 36.9531
Q23.9688 32.4219 30.6094 32.4219" id="DejaVuSans-39"/>
      </defs>
      <g style="fill:#262626;" transform="translate(59.459375 97.43984375)scale(0.1 -0.1)">
       <use xlink:href="#DejaVuSans-30"/>
       <use x="63.623046875" xlink:href="#DejaVuSans-2e"/>
       <use x="95.41015625" xlink:href="#DejaVuSans-39"/>
      </g>
     </g>
    </g>
    <g id="ytick_10">
     <g id="line2d_32">
      <path clip-path="url(#p55c4b05dd8)" d="
M81 50.4
L583.2 50.4" style="fill:none;stroke:#cccccc;stroke-linecap:round;"/>
     </g>
     <g id="line2d_33">
      <g>
       <use style="fill:#262626;stroke:#262626;stroke-linecap:butt;" x="81.0" xlink:href="#m809ce076b5" y="50.4"/>
      </g>
     </g>
     <g id="line2d_34">
      <g>
       <use style="fill:#262626;stroke:#262626;stroke-linecap:butt;" x="583.2" xlink:href="#m809ce076b5" y="50.4"/>
      </g>
     </g>
     <g id="text_12">
      <!-- 1.0 -->
      <g style="fill:#262626;" transform="translate(59.859375 54.03984375)scale(0.1 -0.1)">
       <use xlink:href="#DejaVuSans-31"/>
       <use x="63.623046875" xlink:href="#DejaVuSans-2e"/>
       <use x="95.41015625" xlink:href="#DejaVuSans-30"/>
      </g>
     </g>
    </g>
    <g id="text_13">
     <!-- Music category decoding accuracy -->
     <defs>
      <path d="
M46.3906 14.5938
Q46.3906 10.8906 44.9375 7.98438
Q43.5 5.07812 40.7656 3.09375
Q38.0312 1.125 34.0469 0.0625
Q30.0781 -0.984375 24.9531 -0.984375
Q20.3594 -0.984375 16.6719 -0.265625
Q12.9844 0.4375 10.2031 2
Q7.42188 3.5625 5.53125 6.125
Q3.65625 8.6875 2.78125 12.4062
L10.5469 13.9219
Q11.6719 9.67188 15.1875 7.6875
Q18.7031 5.71875 24.9531 5.71875
Q27.7812 5.71875 30.1406 6.10938
Q32.5156 6.5 34.2188 7.45312
Q35.9375 8.40625 36.8906 9.98438
Q37.8438 11.5781 37.8438 13.9219
Q37.8438 16.3125 36.7188 17.8438
Q35.5938 19.3906 33.5938 20.4062
Q31.5938 21.4375 28.7344 22.1875
Q25.875 22.9531 22.4688 23.875
Q19.2812 24.7031 16.1562 25.7344
Q13.0312 26.7656 10.5156 28.4375
Q8.01562 30.125 6.45312 32.6094
Q4.89062 35.1094 4.89062 38.875
Q4.89062 46.0938 10.0312 49.875
Q15.1875 53.6562 25.0469 53.6562
Q33.7969 53.6562 38.9375 50.5781
Q44.0938 47.5156 45.4531 40.7188
L37.5469 39.75
Q37.1094 41.7969 35.9375 43.1875
Q34.7656 44.5781 33.1094 45.4375
Q31.4531 46.2969 29.375 46.6562
Q27.2969 47.0156 25.0469 47.0156
Q19.0938 47.0156 16.25 45.2031
Q13.4219 43.4062 13.4219 39.75
Q13.4219 37.5938 14.4688 36.2031
Q15.5312 34.8125 17.4062 33.8594
Q19.2812 32.9062 21.9219 32.2031
Q24.5625 31.5 27.7344 30.7188
Q29.8281 30.1719 32.0312 29.5625
Q34.2344 28.9531 36.2969 28.0938
Q38.375 27.25 40.2031 26.0938
Q42.0469 24.9531 43.4062 23.3438
Q44.7812 21.7344 45.5781 19.5781
Q46.3906 17.4375 46.3906 14.5938" id="LiberationSans-73"/>
      <path d="
M13.4844 24.5625
Q13.4844 20.4062 14.3281 16.9062
Q15.1875 13.4219 16.9688 10.9062
Q18.75 8.40625 21.5312 7
Q24.3125 5.60938 28.2188 5.60938
Q33.9375 5.60938 37.375 7.90625
Q40.8281 10.2031 42.0469 13.7188
L49.75 11.5312
Q48.9219 9.32812 47.4375 7.10938
Q45.9531 4.89062 43.4531 3.09375
Q40.9688 1.3125 37.2344 0.15625
Q33.5 -0.984375 28.2188 -0.984375
Q16.5 -0.984375 10.375 6
Q4.25 12.9844 4.25 26.7656
Q4.25 34.1875 6.09375 39.3281
Q7.95312 44.4844 11.1719 47.7031
Q14.4062 50.9219 18.7031 52.3594
Q23 53.8125 27.875 53.8125
Q34.5156 53.8125 38.9844 51.6562
Q43.4531 49.5156 46.1562 45.7188
Q48.875 41.9375 50.0156 36.8125
Q51.1719 31.6875 51.1719 25.7344
L51.1719 24.5625
z

M42.0938 31.2969
Q41.3594 39.6562 37.8438 43.4844
Q34.3281 47.3125 27.7344 47.3125
Q25.5312 47.3125 23.1094 46.6094
Q20.7031 45.9062 18.6562 44.0938
Q16.6094 42.2812 15.1875 39.1719
Q13.7656 36.0781 13.5781 31.2969
z
" id="LiberationSans-65"/>
      <path d="
M26.7656 -20.75
Q22.2188 -20.75 18.7031 -19.8125
Q15.1875 -18.8906 12.6875 -17.1562
Q10.2031 -15.4375 8.64062 -13.0312
Q7.07812 -10.6406 6.39062 -7.71875
L15.2344 -6.45312
Q16.1094 -10.1094 19.1094 -12.0781
Q22.125 -14.0625 27 -14.0625
Q29.9844 -14.0625 32.4219 -13.2344
Q34.8594 -12.4062 36.5625 -10.5625
Q38.2812 -8.73438 39.2031 -5.79688
Q40.1406 -2.875 40.1406 1.3125
L40.1406 9.8125
L40.0469 9.8125
Q39.0625 7.8125 37.625 5.98438
Q36.1875 4.15625 34.1094 2.73438
Q32.0312 1.3125 29.2969 0.453125
Q26.5625 -0.390625 23.0469 -0.390625
Q18.0156 -0.390625 14.4219 1.29688
Q10.8438 2.98438 8.5625 6.34375
Q6.29688 9.71875 5.25 14.7188
Q4.20312 19.7344 4.20312 26.3125
Q4.20312 32.6719 5.25 37.75
Q6.29688 42.8281 8.65625 46.3594
Q11.0312 49.9062 14.8125 51.7812
Q18.6094 53.6562 24.0312 53.6562
Q29.6406 53.6562 33.7656 51.0938
Q37.8906 48.5312 40.1406 43.7969
L40.2344 43.7969
Q40.2344 45.0156 40.2969 46.5312
Q40.375 48.0469 40.4531 49.3906
Q40.5312 50.7344 40.625 51.7031
Q40.7188 52.6875 40.8281 52.8281
L49.1719 52.8281
Q49.125 52.3906 49.0781 51.3438
Q49.0312 50.2969 48.9688 48.8281
Q48.9219 47.3594 48.8906 45.5781
Q48.875 43.7969 48.875 41.8906
L48.875 1.51562
Q48.875 -9.57812 43.4219 -15.1562
Q37.9844 -20.75 26.7656 -20.75
M40.1406 26.4219
Q40.1406 31.9375 38.9375 35.8594
Q37.75 39.7969 35.7969 42.2812
Q33.8438 44.7812 31.3281 45.9531
Q28.8125 47.125 26.1719 47.125
Q22.7969 47.125 20.375 45.9531
Q17.9688 44.7812 16.375 42.2656
Q14.7969 39.75 14.0312 35.8125
Q13.2812 31.8906 13.2812 26.4219
Q13.2812 20.7031 14.0312 16.8125
Q14.7969 12.9375 16.3594 10.5469
Q17.9219 8.15625 20.3125 7.125
Q22.7031 6.10938 26.0312 6.10938
Q28.6562 6.10938 31.1719 7.21875
Q33.6875 8.34375 35.6875 10.7812
Q37.7031 13.2344 38.9219 17.0938
Q40.1406 20.9531 40.1406 26.4219" id="LiberationSans-67"/>
      <path d="
M20.2188 -0.984375
Q12.25 -0.984375 8.25 3.21875
Q4.25 7.42188 4.25 14.75
Q4.25 19.9688 6.21875 23.3125
Q8.20312 26.6562 11.3906 28.5625
Q14.5938 30.4688 18.6875 31.2031
Q22.7969 31.9375 27.0469 32.0312
L38.9219 32.2344
L38.9219 35.1094
Q38.9219 38.375 38.2344 40.6719
Q37.5469 42.9688 36.125 44.375
Q34.7188 45.7969 32.5938 46.4531
Q30.4688 47.125 27.5938 47.125
Q25.0469 47.125 23 46.75
Q20.9531 46.3906 19.4375 45.4375
Q17.9219 44.4844 16.9844 42.8438
Q16.0625 41.2188 15.7656 38.7188
L6.59375 39.5469
Q7.07812 42.6719 8.4375 45.2812
Q9.8125 47.9062 12.3281 49.7969
Q14.8438 51.7031 18.625 52.75
Q22.4062 53.8125 27.7812 53.8125
Q37.75 53.8125 42.7656 49.2344
Q47.7969 44.6719 47.7969 36.0312
L47.7969 13.2812
Q47.7969 9.375 48.8281 7.39062
Q49.8594 5.42188 52.7344 5.42188
Q53.4688 5.42188 54.2031 5.51562
Q54.9375 5.60938 55.6094 5.76562
L55.6094 0.296875
Q53.9531 -0.09375 52.3125 -0.28125
Q50.6875 -0.484375 48.8281 -0.484375
Q46.3438 -0.484375 44.5625 0.171875
Q42.7812 0.828125 41.6562 2.17188
Q40.5312 3.51562 39.9375 5.48438
Q39.3594 7.46875 39.2031 10.1094
L38.9219 10.1094
Q37.5 7.5625 35.8125 5.51562
Q34.125 3.46875 31.875 2.03125
Q29.6406 0.59375 26.7812 -0.1875
Q23.9219 -0.984375 20.2188 -0.984375
M22.2188 5.60938
Q26.4219 5.60938 29.5625 7.14062
Q32.7188 8.6875 34.7812 11.0781
Q36.8594 13.4844 37.8906 16.3125
Q38.9219 19.1406 38.9219 21.7344
L38.9219 26.0781
L29.2969 25.875
Q26.0781 25.8281 23.1719 25.4062
Q20.2656 25 18.0625 23.7812
Q15.875 22.5625 14.5781 20.3594
Q13.2812 18.1719 13.2812 14.5938
Q13.2812 10.2969 15.5938 7.95312
Q17.9219 5.60938 22.2188 5.60938" id="LiberationSans-61"/>
      <path d="
M15.3281 52.8281
L15.3281 19.3438
Q15.3281 15.4844 15.8906 12.8906
Q16.4531 10.2969 17.7188 8.70312
Q19 7.125 21.0625 6.46875
Q23.1406 5.8125 26.2188 5.8125
Q29.3438 5.8125 31.8594 6.90625
Q34.375 8.01562 36.1562 10.0781
Q37.9375 12.1562 38.9062 15.2031
Q39.8906 18.2656 39.8906 22.2188
L39.8906 52.8281
L48.6875 52.8281
L48.6875 11.2812
Q48.6875 9.625 48.7031 7.78125
Q48.7344 5.95312 48.7812 4.3125
Q48.8281 2.6875 48.875 1.51562
Q48.9219 0.34375 48.9688 0
L40.6719 0
Q40.625 0.25 40.5781 1.3125
Q40.5312 2.39062 40.4531 3.78125
Q40.375 5.17188 40.3281 6.60938
Q40.2812 8.0625 40.2812 9.03125
L40.1406 9.03125
Q38.875 6.73438 37.3594 4.875
Q35.8438 3.03125 33.8438 1.73438
Q31.8438 0.4375 29.25 -0.265625
Q26.6562 -0.984375 23.25 -0.984375
Q18.8438 -0.984375 15.6719 0.09375
Q12.5 1.17188 10.4531 3.42188
Q8.40625 5.67188 7.45312 9.1875
Q6.5 12.7031 6.5 17.625
L6.5 52.8281
z
" id="LiberationSans-75"/>
      <path d="
M13.4219 26.6562
Q13.4219 22.125 14.0781 18.3125
Q14.75 14.5 16.3125 11.7344
Q17.875 8.98438 20.4375 7.46875
Q23 5.95312 26.7656 5.95312
Q31.4531 5.95312 34.5938 8.48438
Q37.75 11.0312 38.4844 16.3125
L47.3594 15.7188
Q46.9219 12.4531 45.4531 9.42188
Q44 6.39062 41.4844 4.09375
Q38.9688 1.8125 35.3438 0.40625
Q31.7344 -0.984375 27 -0.984375
Q20.7969 -0.984375 16.4531 1.10938
Q12.1094 3.21875 9.39062 6.90625
Q6.6875 10.5938 5.46875 15.5938
Q4.25 20.6094 4.25 26.4688
Q4.25 31.7812 5.125 35.8594
Q6 39.9375 7.59375 42.9844
Q9.1875 46.0469 11.3281 48.125
Q13.4844 50.2031 15.9844 51.4375
Q18.5 52.6875 21.2812 53.25
Q24.0781 53.8125 26.9062 53.8125
Q31.3438 53.8125 34.8125 52.5938
Q38.2812 51.375 40.7969 49.25
Q43.3125 47.125 44.875 44.2344
Q46.4375 41.3594 47.0781 38.0312
L38.0312 37.3594
Q37.3594 41.75 34.5625 44.3281
Q31.7812 46.9219 26.6562 46.9219
Q22.9062 46.9219 20.3906 45.6719
Q17.875 44.4375 16.3125 41.9219
Q14.75 39.4062 14.0781 35.5938
Q13.4219 31.7812 13.4219 26.6562" id="LiberationSans-63"/>
      <path d="
M66.7031 0
L66.7031 45.9062
Q66.7031 48.3906 66.75 50.9688
Q66.7969 53.5625 66.8906 55.7188
Q67 58.2031 67.1406 60.5469
Q66.4531 58.0625 65.7188 55.6094
Q65.0938 53.5156 64.3281 51.1406
Q63.5781 48.7812 62.8438 46.875
L45.0625 0
L38.5312 0
L20.5156 46.875
Q20.2188 47.6094 19.8906 48.5781
Q19.5781 49.5625 19.2031 50.6562
Q18.8438 51.7656 18.4688 52.9062
Q18.1094 54.0469 17.7812 55.1719
Q16.9375 57.7656 16.1562 60.5469
Q16.2188 57.8125 16.3125 55.125
Q16.4062 52.8281 16.4531 50.3125
Q16.5 47.7969 16.5 45.9062
L16.5 0
L8.20312 0
L8.20312 68.7969
L20.4531 68.7969
L38.7656 21.0938
Q39.1094 20.125 39.5938 18.5781
Q40.0938 17.0469 40.5312 15.4219
Q40.9688 13.8125 41.3281 12.375
Q41.7031 10.9375 41.8438 10.1562
Q42 10.9375 42.3906 12.4062
Q42.7812 13.875 43.2812 15.4844
Q43.7969 17.0938 44.2812 18.6094
Q44.7812 20.125 45.1719 21.0938
L63.1406 68.7969
L75.0938 68.7969
L75.0938 0
z
" id="LiberationSans-4d"/>
      <path d="
M27.0469 0.390625
Q25.0469 -0.140625 22.9688 -0.453125
Q20.9062 -0.78125 18.1719 -0.78125
Q7.625 -0.78125 7.625 11.1875
L7.625 46.4375
L1.51562 46.4375
L1.51562 52.8281
L7.95312 52.8281
L10.5469 64.6562
L16.4062 64.6562
L16.4062 52.8281
L26.1719 52.8281
L26.1719 46.4375
L16.4062 46.4375
L16.4062 13.0938
Q16.4062 9.28125 17.6406 7.73438
Q18.8906 6.20312 21.9688 6.20312
Q23.25 6.20312 24.4375 6.39062
Q25.6406 6.59375 27.0469 6.89062
z
" id="LiberationSans-74"/>
      <path d="
M6.6875 64.0625
L6.6875 72.4688
L15.4844 72.4688
L15.4844 64.0625
z

M6.6875 0
L6.6875 52.8281
L15.4844 52.8281
L15.4844 0
z
" id="LiberationSans-69"/>
      <path d="
M6.9375 0
L6.9375 40.5312
Q6.9375 42.1875 6.90625 43.9219
Q6.89062 45.6562 6.82812 47.2656
Q6.78125 48.875 6.73438 50.2812
Q6.6875 51.7031 6.64062 52.8281
L14.9375 52.8281
Q14.9844 51.7031 15.0625 50.2656
Q15.1406 48.8281 15.2031 47.3125
Q15.2812 45.7969 15.2969 44.4062
Q15.3281 43.0156 15.3281 42.0469
L15.5312 42.0469
Q16.4531 45.0625 17.5 47.2812
Q18.5625 49.5156 19.9688 50.9531
Q21.3906 52.3906 23.3438 53.0938
Q25.2969 53.8125 28.0781 53.8125
Q29.1562 53.8125 30.125 53.6406
Q31.1094 53.4688 31.6406 53.3281
L31.6406 45.2656
Q30.7656 45.5156 29.5938 45.625
Q28.4219 45.75 26.9531 45.75
Q23.9219 45.75 21.7969 44.375
Q19.6719 43.0156 18.3281 40.5938
Q17 38.1875 16.3594 34.8438
Q15.7188 31.5 15.7188 27.5469
L15.7188 0
z
" id="LiberationSans-72"/>
      <path d="
M40.2812 0
L40.2812 33.5
Q40.2812 37.3594 39.7188 39.9375
Q39.1562 42.5312 37.8906 44.1094
Q36.625 45.7031 34.5469 46.3594
Q32.4688 47.0156 29.3906 47.0156
Q26.2656 47.0156 23.75 45.9219
Q21.2344 44.8281 19.4531 42.75
Q17.6719 40.6719 16.6875 37.625
Q15.7188 34.5781 15.7188 30.6094
L15.7188 0
L6.9375 0
L6.9375 41.5469
Q6.9375 43.2188 6.90625 45.0469
Q6.89062 46.875 6.82812 48.5
Q6.78125 50.1406 6.73438 51.3125
Q6.6875 52.4844 6.64062 52.8281
L14.9375 52.8281
Q14.9844 52.5938 15.0312 51.5156
Q15.0938 50.4375 15.1562 49.0469
Q15.2344 47.6562 15.2812 46.2188
Q15.3281 44.7812 15.3281 43.7969
L15.4844 43.7969
Q16.75 46.0938 18.2656 47.9531
Q19.7812 49.8125 21.7812 51.0938
Q23.7812 52.3906 26.3594 53.0938
Q28.9531 53.8125 32.375 53.8125
Q36.7656 53.8125 39.9375 52.7344
Q43.1094 51.6562 45.1562 49.4062
Q47.2188 47.1719 48.1719 43.625
Q49.125 40.0938 49.125 35.2031
L49.125 0
z
" id="LiberationSans-6e"/>
      <path d="
M51.4219 26.4688
Q51.4219 12.5938 45.3125 5.79688
Q39.2031 -0.984375 27.5938 -0.984375
Q22.0781 -0.984375 17.7188 0.671875
Q13.375 2.34375 10.375 5.76562
Q7.375 9.1875 5.78125 14.3281
Q4.20312 19.4844 4.20312 26.4688
Q4.20312 53.8125 27.875 53.8125
Q34.0312 53.8125 38.5 52.0938
Q42.9688 50.3906 45.8281 46.9688
Q48.6875 43.5625 50.0469 38.4219
Q51.4219 33.2969 51.4219 26.4688
M42.1875 26.4688
Q42.1875 32.625 41.2344 36.625
Q40.2812 40.625 38.4531 43.0156
Q36.625 45.4062 33.9844 46.3594
Q31.3438 47.3125 28.0312 47.3125
Q24.6562 47.3125 21.9375 46.3125
Q19.2344 45.3125 17.3281 42.8906
Q15.4375 40.4844 14.4219 36.4688
Q13.4219 32.4688 13.4219 26.4688
Q13.4219 20.3125 14.5 16.2812
Q15.5781 12.25 17.4531 9.85938
Q19.3438 7.46875 21.9062 6.48438
Q24.4688 5.51562 27.4844 5.51562
Q30.8594 5.51562 33.5938 6.46875
Q36.3281 7.42188 38.2344 9.8125
Q40.1406 12.2031 41.1562 16.25
Q42.1875 20.3125 42.1875 26.4688" id="LiberationSans-6f"/>
      <path d="
M40.0938 8.5
Q37.6406 3.42188 33.6094 1.21875
Q29.5938 -0.984375 23.6406 -0.984375
Q13.625 -0.984375 8.90625 5.75
Q4.20312 12.5 4.20312 26.1719
Q4.20312 53.8125 23.6406 53.8125
Q29.6406 53.8125 33.6406 51.6094
Q37.6406 49.4219 40.0938 44.625
L40.1875 44.625
Q40.1875 45.125 40.1562 46.1719
Q40.1406 47.2188 40.1094 48.3594
Q40.0938 49.5156 40.0938 50.5312
Q40.0938 51.5625 40.0938 52
L40.0938 72.4688
L48.875 72.4688
L48.875 10.8906
Q48.875 8.98438 48.8906 7.21875
Q48.9219 5.46875 48.9688 4
Q49.0312 2.54688 49.0781 1.48438
Q49.125 0.4375 49.1719 0
L40.7656 0
Q40.6719 0.484375 40.5938 1.39062
Q40.5312 2.29688 40.4531 3.46875
Q40.375 4.64062 40.3281 5.9375
Q40.2812 7.23438 40.2812 8.5
z

M13.4219 26.4688
Q13.4219 21 14.1094 17.0938
Q14.7969 13.1875 16.3125 10.6719
Q17.8281 8.15625 20.1719 6.98438
Q22.5156 5.8125 25.875 5.8125
Q29.3438 5.8125 32 6.9375
Q34.6719 8.0625 36.4531 10.5781
Q38.2344 13.0938 39.1562 17.1406
Q40.0938 21.1875 40.0938 27.0469
Q40.0938 32.6719 39.1562 36.5469
Q38.2344 40.4375 36.4219 42.8281
Q34.625 45.2188 32 46.2656
Q29.3906 47.3125 25.9844 47.3125
Q22.75 47.3125 20.4062 46.1875
Q18.0625 45.0625 16.5 42.5781
Q14.9375 40.0938 14.1719 36.1094
Q13.4219 32.125 13.4219 26.4688" id="LiberationSans-64"/>
      <path id="LiberationSans-20"/>
      <path d="
M29.5 0
Q27.6406 -4.78125 25.7031 -8.60938
Q23.7812 -12.4531 21.3906 -15.1562
Q19 -17.875 16.0625 -19.3125
Q13.1406 -20.75 9.32812 -20.75
Q7.67188 -20.75 6.25 -20.6562
Q4.82812 -20.5625 3.26562 -20.2188
L3.26562 -13.625
Q4.20312 -13.7656 5.375 -13.8438
Q6.54688 -13.9219 7.375 -13.9219
Q11.2344 -13.9219 14.5469 -11.0312
Q17.875 -8.15625 20.3594 -1.85938
L21.1875 0.25
L0.25 52.8281
L9.625 52.8281
L20.75 23.6406
Q21.2344 22.3125 21.9844 20.1094
Q22.75 17.9219 23.5 15.7188
Q24.2656 13.5312 24.8438 11.7656
Q25.4375 10.0156 25.5312 9.57812
Q25.6875 10.1094 26.25 11.6875
Q26.8125 13.2812 27.5156 15.2344
Q28.2188 17.1875 28.9531 19.1875
Q29.6875 21.1875 30.1719 22.6562
L40.5312 52.8281
L49.8125 52.8281
z
" id="LiberationSans-79"/>
     </defs>
     <g style="fill:#262626;" transform="translate(54.3171875 327.776328125)rotate(-90.0)scale(0.11 -0.11)">
      <use xlink:href="#LiberationSans-4d"/>
      <use x="83.30078125" xlink:href="#LiberationSans-75"/>
      <use x="138.916015625" xlink:href="#LiberationSans-73"/>
      <use x="188.916015625" xlink:href="#LiberationSans-69"/>
      <use x="211.1328125" xlink:href="#LiberationSans-63"/>
      <use x="261.1328125" xlink:href="#LiberationSans-20"/>
      <use x="288.916015625" xlink:href="#LiberationSans-63"/>
      <use x="338.916015625" xlink:href="#LiberationSans-61"/>
      <use x="394.53125" xlink:href="#LiberationSans-74"/>
      <use x="422.314453125" xlink:href="#LiberationSans-65"/>
      <use x="477.9296875" xlink:href="#LiberationSans-67"/>
      <use x="533.544921875" xlink:href="#LiberationSans-6f"/>
      <use x="589.16015625" xlink:href="#LiberationSans-72"/>
      <use x="622.4609375" xlink:href="#LiberationSans-79"/>
      <use x="672.4609375" xlink:href="#LiberationSans-20"/>
      <use x="700.244140625" xlink:href="#LiberationSans-64"/>
      <use x="755.859375" xlink:href="#LiberationSans-65"/>
      <use x="811.474609375" xlink:href="#LiberationSans-63"/>
      <use x="861.474609375" xlink:href="#LiberationSans-6f"/>
      <use x="917.08984375" xlink:href="#LiberationSans-64"/>
      <use x="972.705078125" xlink:href="#LiberationSans-69"/>
      <use x="994.921875" xlink:href="#LiberationSans-6e"/>
      <use x="1050.53710938" xlink:href="#LiberationSans-67"/>
      <use x="1106.15234375" xlink:href="#LiberationSans-20"/>
      <use x="1133.93554688" xlink:href="#LiberationSans-61"/>
      <use x="1189.55078125" xlink:href="#LiberationSans-63"/>
      <use x="1239.55078125" xlink:href="#LiberationSans-63"/>
      <use x="1289.55078125" xlink:href="#LiberationSans-75"/>
      <use x="1345.16601562" xlink:href="#LiberationSans-72"/>
      <use x="1378.46679688" xlink:href="#LiberationSans-61"/>
      <use x="1434.08203125" xlink:href="#LiberationSans-63"/>
      <use x="1484.08203125" xlink:href="#LiberationSans-79"/>
     </g>
    </g>
   </g>
   <g id="PolyCollection_1">
    <defs>
     <path d="
M212.511 -89.04
L200.589 -89.04
L200.04 -91.6703
L199.469 -94.3006
L198.871 -96.9309
L198.236 -99.5612
L197.556 -102.192
L196.825 -104.822
L196.038 -107.452
L195.195 -110.082
L194.295 -112.713
L193.346 -115.343
L192.353 -117.973
L191.329 -120.604
L190.286 -123.234
L189.236 -125.864
L188.192 -128.495
L187.168 -131.125
L186.175 -133.755
L185.223 -136.385
L184.32 -139.016
L183.469 -141.646
L182.672 -144.276
L181.923 -146.907
L181.214 -149.537
L180.527 -152.167
L179.839 -154.798
L179.119 -157.428
L178.332 -160.058
L177.436 -162.688
L176.385 -165.319
L175.135 -167.949
L173.643 -170.579
L171.873 -173.21
L169.795 -175.84
L167.393 -178.47
L164.66 -181.101
L161.607 -183.731
L158.254 -186.361
L154.635 -188.992
L150.796 -191.622
L146.79 -194.252
L142.677 -196.882
L138.522 -199.513
L134.392 -202.143
L130.351 -204.773
L126.466 -207.404
L122.796 -210.034
L119.397 -212.664
L116.319 -215.295
L113.604 -217.925
L111.285 -220.555
L109.386 -223.185
L107.921 -225.816
L106.893 -228.446
L106.295 -231.076
L106.11 -233.707
L106.311 -236.337
L106.863 -238.967
L107.729 -241.598
L108.865 -244.228
L110.229 -246.858
L111.784 -249.488
L113.495 -252.119
L115.34 -254.749
L117.303 -257.379
L119.381 -260.01
L121.581 -262.64
L123.918 -265.27
L126.412 -267.901
L129.086 -270.531
L131.958 -273.161
L135.04 -275.792
L138.333 -278.422
L141.824 -281.052
L145.487 -283.682
L149.279 -286.313
L153.148 -288.943
L157.032 -291.573
L160.867 -294.204
L164.587 -296.834
L168.137 -299.464
L171.468 -302.095
L174.544 -304.725
L177.345 -307.355
L179.864 -309.985
L182.105 -312.616
L184.085 -315.246
L185.829 -317.876
L187.367 -320.507
L188.73 -323.137
L189.951 -325.767
L191.06 -328.398
L192.086 -331.028
L193.052 -333.658
L193.976 -336.288
L194.874 -338.919
L195.755 -341.549
L196.626 -344.179
L197.487 -346.81
L198.338 -349.44
L214.762 -349.44
L214.762 -349.44
L215.613 -346.81
L216.474 -344.179
L217.345 -341.549
L218.226 -338.919
L219.124 -336.288
L220.048 -333.658
L221.014 -331.028
L222.04 -328.398
L223.149 -325.767
L224.37 -323.137
L225.733 -320.507
L227.271 -317.876
L229.015 -315.246
L230.995 -312.616
L233.236 -309.985
L235.755 -307.355
L238.556 -304.725
L241.632 -302.095
L244.963 -299.464
L248.513 -296.834
L252.233 -294.204
L256.068 -291.573
L259.952 -288.943
L263.821 -286.313
L267.613 -283.682
L271.276 -281.052
L274.767 -278.422
L278.06 -275.792
L281.142 -273.161
L284.014 -270.531
L286.688 -267.901
L289.182 -265.27
L291.519 -262.64
L293.719 -260.01
L295.797 -257.379
L297.76 -254.749
L299.605 -252.119
L301.316 -249.488
L302.871 -246.858
L304.235 -244.228
L305.371 -241.598
L306.237 -238.967
L306.789 -236.337
L306.99 -233.707
L306.805 -231.076
L306.207 -228.446
L305.179 -225.816
L303.714 -223.185
L301.815 -220.555
L299.496 -217.925
L296.781 -215.295
L293.703 -212.664
L290.304 -210.034
L286.634 -207.404
L282.749 -204.773
L278.708 -202.143
L274.578 -199.513
L270.423 -196.882
L266.31 -194.252
L262.304 -191.622
L258.465 -188.992
L254.846 -186.361
L251.493 -183.731
L248.44 -181.101
L245.707 -178.47
L243.305 -175.84
L241.227 -173.21
L239.457 -170.579
L237.965 -167.949
L236.715 -165.319
L235.664 -162.688
L234.768 -160.058
L233.981 -157.428
L233.261 -154.798
L232.573 -152.167
L231.886 -149.537
L231.177 -146.907
L230.428 -144.276
L229.631 -141.646
L228.78 -139.016
L227.877 -136.385
L226.925 -133.755
L225.932 -131.125
L224.908 -128.495
L223.864 -125.864
L222.814 -123.234
L221.771 -120.604
L220.747 -117.973
L219.754 -115.343
L218.805 -112.713
L217.905 -110.082
L217.062 -107.452
L216.275 -104.822
L215.544 -102.192
L214.864 -99.5612
L214.229 -96.9309
L213.631 -94.3006
L213.06 -91.6703
L212.511 -89.04
z
" id="C0_0_b7460e26ef"/>
    </defs>
    <g clip-path="url(#p55c4b05dd8)">
     <use style="fill:#5975a4;stroke:#4c4c4c;stroke-linecap:butt;stroke-width:1.75;" x="0" xlink:href="#C0_0_b7460e26ef" y="504.0"/>
    </g>
   </g>
   <g id="PolyCollection_2">
    <defs>
     <path d="
M465.301 -141.12
L449.999 -141.12
L449.039 -144.101
L447.989 -147.082
L446.837 -150.063
L445.571 -153.044
L444.182 -156.025
L442.665 -159.006
L441.021 -161.987
L439.254 -164.968
L437.375 -167.949
L435.4 -170.93
L433.344 -173.911
L431.226 -176.892
L429.058 -179.873
L426.851 -182.854
L424.606 -185.835
L422.32 -188.816
L419.983 -191.797
L417.58 -194.778
L415.092 -197.759
L412.503 -200.74
L409.8 -203.721
L406.976 -206.702
L404.033 -209.683
L400.981 -212.664
L397.84 -215.645
L394.635 -218.626
L391.394 -221.607
L388.147 -224.588
L384.924 -227.569
L381.749 -230.55
L378.646 -233.531
L375.635 -236.512
L372.738 -239.493
L369.979 -242.474
L367.386 -245.455
L364.993 -248.436
L362.841 -251.417
L360.975 -254.398
L359.439 -257.379
L358.278 -260.36
L357.527 -263.341
L357.21 -266.322
L357.34 -269.303
L357.912 -272.284
L358.909 -275.265
L360.3 -278.246
L362.043 -281.227
L364.091 -284.208
L366.391 -287.189
L368.892 -290.171
L371.542 -293.152
L374.295 -296.133
L377.107 -299.114
L379.94 -302.095
L382.76 -305.076
L385.538 -308.057
L388.251 -311.038
L390.877 -314.019
L393.404 -317
L395.82 -319.981
L398.12 -322.962
L400.303 -325.943
L402.372 -328.924
L404.335 -331.905
L406.205 -334.886
L407.998 -337.867
L409.735 -340.848
L411.441 -343.829
L413.144 -346.81
L414.873 -349.791
L416.655 -352.772
L418.516 -355.753
L420.476 -358.734
L422.546 -361.715
L424.724 -364.696
L426.999 -367.677
L429.348 -370.658
L431.738 -373.639
L434.127 -376.62
L436.471 -379.601
L438.727 -382.582
L440.854 -385.563
L442.822 -388.544
L444.608 -391.525
L446.201 -394.506
L447.6 -397.487
L448.811 -400.468
L449.849 -403.449
L450.732 -406.43
L451.48 -409.411
L452.112 -412.392
L452.648 -415.373
L453.105 -418.354
L453.498 -421.335
L453.841 -424.316
L454.145 -427.297
L454.42 -430.278
L454.676 -433.259
L454.919 -436.24
L460.381 -436.24
L460.381 -436.24
L460.624 -433.259
L460.88 -430.278
L461.155 -427.297
L461.459 -424.316
L461.802 -421.335
L462.195 -418.354
L462.652 -415.373
L463.188 -412.392
L463.82 -409.411
L464.568 -406.43
L465.451 -403.449
L466.489 -400.468
L467.7 -397.487
L469.099 -394.506
L470.692 -391.525
L472.478 -388.544
L474.446 -385.563
L476.573 -382.582
L478.829 -379.601
L481.173 -376.62
L483.562 -373.639
L485.952 -370.658
L488.301 -367.677
L490.576 -364.696
L492.754 -361.715
L494.824 -358.734
L496.784 -355.753
L498.645 -352.772
L500.427 -349.791
L502.156 -346.81
L503.859 -343.829
L505.565 -340.848
L507.302 -337.867
L509.095 -334.886
L510.965 -331.905
L512.928 -328.924
L514.997 -325.943
L517.18 -322.962
L519.48 -319.981
L521.896 -317
L524.423 -314.019
L527.049 -311.038
L529.762 -308.057
L532.54 -305.076
L535.36 -302.095
L538.193 -299.114
L541.005 -296.133
L543.758 -293.152
L546.408 -290.171
L548.909 -287.189
L551.209 -284.208
L553.257 -281.227
L555 -278.246
L556.391 -275.265
L557.388 -272.284
L557.96 -269.303
L558.09 -266.322
L557.773 -263.341
L557.022 -260.36
L555.861 -257.379
L554.325 -254.398
L552.459 -251.417
L550.307 -248.436
L547.914 -245.455
L545.321 -242.474
L542.562 -239.493
L539.665 -236.512
L536.654 -233.531
L533.551 -230.55
L530.376 -227.569
L527.153 -224.588
L523.906 -221.607
L520.665 -218.626
L517.46 -215.645
L514.319 -212.664
L511.267 -209.683
L508.324 -206.702
L505.5 -203.721
L502.797 -200.74
L500.208 -197.759
L497.72 -194.778
L495.317 -191.797
L492.98 -188.816
L490.694 -185.835
L488.449 -182.854
L486.242 -179.873
L484.074 -176.892
L481.956 -173.911
L479.9 -170.93
L477.925 -167.949
L476.046 -164.968
L474.279 -161.987
L472.635 -159.006
L471.118 -156.025
L469.729 -153.044
L468.463 -150.063
L467.311 -147.082
L466.261 -144.101
L465.301 -141.12
z
" id="C1_0_ab1360cfdb"/>
    </defs>
    <g clip-path="url(#p55c4b05dd8)">
     <use style="fill:#5f9e6e;stroke:#4c4c4c;stroke-linecap:butt;stroke-width:1.75;" x="0" xlink:href="#C1_0_ab1360cfdb" y="504.0"/>
    </g>
   </g>
   <g id="line2d_35">
    <path clip-path="url(#p55c4b05dd8)" d="
M206.55 362.88
L206.55 171.92" style="fill:none;stroke:#4c4c4c;stroke-linecap:round;stroke-width:1.75;"/>
   </g>
   <g id="line2d_36">
    <path clip-path="url(#p55c4b05dd8)" d="
M206.55 293.44
L206.55 241.36" style="fill:none;stroke:#4c4c4c;stroke-linecap:round;stroke-width:5.25;"/>
   </g>
   <g id="line2d_37">
    <path clip-path="url(#p55c4b05dd8)" d="
M457.65 362.88
L457.65 67.76" style="fill:none;stroke:#4c4c4c;stroke-linecap:round;stroke-width:1.75;"/>
   </g>
   <g id="line2d_38">
    <path clip-path="url(#p55c4b05dd8)" d="
M457.65 276.08
L457.65 189.28" style="fill:none;stroke:#4c4c4c;stroke-linecap:round;stroke-width:5.25;"/>
   </g>
   <g id="patch_3">
    <path d="
M81 50.4
L583.2 50.4" style="fill:none;stroke:#cccccc;"/>
   </g>
   <g id="patch_4">
    <path d="
M583.2 441
L583.2 50.4" style="fill:none;stroke:#cccccc;"/>
   </g>
   <g id="patch_5">
    <path d="
M81 441
L583.2 441" style="fill:none;stroke:#cccccc;"/>
   </g>
   <g id="patch_6">
    <path d="
M81 441
L81 50.4" style="fill:none;stroke:#cccccc;"/>
   </g>
   <g id="PathCollection_1">
    <defs>
     <path d="
M0 1.75
C0.464105 1.75 0.909265 1.56561 1.23744 1.23744
C1.56561 0.909265 1.75 0.464105 1.75 0
C1.75 -0.464105 1.56561 -0.909265 1.23744 -1.23744
C0.909265 -1.56561 0.464105 -1.75 0 -1.75
C-0.464105 -1.75 -0.909265 -1.56561 -1.23744 -1.23744
C-1.56561 -0.909265 -1.75 -0.464105 -1.75 0
C-1.75 0.464105 -1.56561 0.909265 -1.23744 1.23744
C-0.909265 1.56561 -0.464105 1.75 0 1.75
z
" id="C2_0_2bdf567659"/>
    </defs>
    <g clip-path="url(#p55c4b05dd8)">
     <use style="fill:#ffffff;stroke:#4c4c4c;stroke-linecap:butt;stroke-width:0.3;" x="206.55" xlink:href="#C2_0_2bdf567659" y="276.08"/>
    </g>
   </g>
   <g id="PathCollection_2">
    <defs>
     <path d="
M0 1.75
C0.464105 1.75 0.909265 1.56561 1.23744 1.23744
C1.56561 0.909265 1.75 0.464105 1.75 0
C1.75 -0.464105 1.56561 -0.909265 1.23744 -1.23744
C0.909265 -1.56561 0.464105 -1.75 0 -1.75
C-0.464105 -1.75 -0.909265 -1.56561 -1.23744 -1.23744
C-1.56561 -0.909265 -1.75 -0.464105 -1.75 0
C-1.75 0.464105 -1.56561 0.909265 -1.23744 1.23744
C-0.909265 1.56561 -0.464105 1.75 0 1.75
z
" id="C3_0_2bdf567659"/>
    </defs>
    <g clip-path="url(#p55c4b05dd8)">
     <use style="fill:#ffffff;stroke:#4c4c4c;stroke-linecap:butt;stroke-width:0.3;" x="457.65" xlink:href="#C3_0_2bdf567659" y="241.36"/>
    </g>
   </g>
  </g>
 </g>
 <defs>
  <clipPath id="p55c4b05dd8">
   <rect height="390.6" width="502.2" x="81.0" y="50.4"/>
  </clipPath>
 </defs>
</svg>
